<?xml version="1.0" encoding="utf-8"?>
<!-- Generator: Adobe Illustrator 18.0.0, SVG Export Plug-In . SVG Version: 6.00 Build 0)  -->
<!DOCTYPE svg PUBLIC "-//W3C//DTD SVG 1.1//EN" "http://www.w3.org/Graphics/SVG/1.1/DTD/svg11.dtd">
<svg version="1.1" id="Слой_1" xmlns="http://www.w3.org/2000/svg" xmlns:xlink="http://www.w3.org/1999/xlink" x="0px" y="0px"
	 viewBox="0 0 445 300" enable-background="new 0 0 445 300" xml:space="preserve">
<g>
	<g>
		<linearGradient id="SVGID_1_" gradientUnits="userSpaceOnUse" x1="175.8548" y1="68.6391" x2="193.5884" y2="68.6391">
			<stop  offset="0" style="stop-color:#3487F8"/>
			<stop  offset="1" style="stop-color:#8FBEFF"/>
		</linearGradient>
		<polygon fill="url(#SVGID_1_)" points="175.9,58.4 193.6,68.5 175.9,78.9 		"/>
		<line fill="none" stroke="#4A2A69" stroke-width="0.5" stroke-miterlimit="10" x1="175.9" y1="101.1" x2="175.9" y2="58.4"/>
	</g>
	<path fill="none" stroke="#4A2A69" stroke-width="0.5" stroke-miterlimit="10" d="M52.8,222.3C45.3,201,115.2,157,208.9,124
		s175.8-42.4,183.3-21.1"/>
	<g>
		<rect x="0" y="0" fill="none" width="445" height="300"/>
	</g>
	<g>
		<path fill="#4F2D70" d="M315.2,182.6c2.7-7.7,4-15.6,4-23.4c0-17.9-6.6-34.5-18.6-46.8c-12.3-12.6-29-19.3-48.4-19.5v0
			c-0.2,0-0.3,0-0.5,0c-0.1,0-0.3,0-0.4,0v0c-11.3,0.1-20.1,2.2-26.9,5.4c-7-3.1-15.9-5.3-27.4-5.4v0c-0.1,0-0.3,0-0.4,0
			c-0.2,0-0.3,0-0.5,0v0c-19.4,0.2-36.1,6.9-48.4,19.5c-12,12.2-18.6,28.9-18.6,46.8c0,7.8,1.3,15.8,4,23.4
			c-1.9,2.1-3.2,4.9-3.7,8.2c-1.1,8.1,3.6,15.6,10.6,17c3.2,0.6,6.3,1,9.3,1.4c15.2,16,39.1,27.4,72.7,28.3v0.1h4.4v-0.1
			c33.6-0.9,57.6-12.4,72.8-28.4c3-0.3,6-0.7,9.2-1.3c7-1.3,11.8-8.8,10.7-16.9C318.5,187.6,317.1,184.8,315.2,182.6z M293.5,159.2
			c0,7-2,14.2-6.2,20.9c-10.4-0.1-19.9-2-28.1-5.3c-6.4-2.5-12-5.8-16.8-9.6c7.5-14.2,9.2-29.6,4.7-42.6c1.4-0.1,2.9-0.2,4.4-0.2
			C280.4,122.7,293.5,141.6,293.5,159.2z M196.5,122.5c1.9,0,3.7,0.1,5.4,0.2c-4.3,13-2.4,28.4,5.3,42.6c-11.1,8.8-27,15-46.3,14.9
			c-4.2-6.7-6.3-13.9-6.3-21C154.7,141.6,167.8,122.7,196.5,122.5z M224.1,207.9c-10.7-0.2-20.1-1.6-28.3-3.9
			c11.5-4.1,21.3-10.2,29.1-17c7.7,6.7,17.3,12.6,28.5,16.7C245,206.2,235.3,207.8,224.1,207.9z"/>
		<g>
			<g>
				<g>
					<linearGradient id="SVGID_2_" gradientUnits="userSpaceOnUse" x1="211.6866" y1="238.53" x2="211.6866" y2="90.2839">
						<stop  offset="0" style="stop-color:#FFA84C"/>
						<stop  offset="0.2951" style="stop-color:#FFB84C"/>
						<stop  offset="0.6567" style="stop-color:#FFC54C"/>
						<stop  offset="1" style="stop-color:#FFC94C"/>
					</linearGradient>
					<path fill="url(#SVGID_2_)" d="M213.9,228.6h-4.4v-0.1c-63.8-1.8-92.9-41.4-92.9-78.3c0-17.9,6.6-34.5,18.6-46.8
						C147.7,90.8,164.8,84,184.6,84v29.6c-29.1,0-42.3,19-42.3,36.7c0,23.1,21.7,48,69.4,48.7c47.7-0.7,69.4-25.6,69.4-48.7
						c0-17.7-13.2-36.7-42.3-36.7V84c19.8,0,36.9,6.7,49.4,19.5c12,12.2,18.6,28.9,18.6,46.8C306.8,187.2,277.7,226.8,213.9,228.6
						L213.9,228.6z"/>
				</g>
				<g>
					<linearGradient id="SVGID_3_" gradientUnits="userSpaceOnUse" x1="176.9808" y1="225.0226" x2="176.9808" y2="87.3556">
						<stop  offset="0" style="stop-color:#FFA84C"/>
						<stop  offset="0.2951" style="stop-color:#FFB84C"/>
						<stop  offset="0.6567" style="stop-color:#FFC54C"/>
						<stop  offset="1" style="stop-color:#FFC94C"/>
					</linearGradient>
					<path fill="url(#SVGID_3_)" d="M183.6,84c33.2,0,45.5,16.7,49.9,26.7c6.6,15,4.3,33.8-6.3,50.4c-12.5,19.7-39.6,39.8-77.9,39.8
						c-6.9,0-14.2-0.7-21.9-2.1c-7-1.3-11.7-8.9-10.6-17c1.1-8.1,7.7-13.5,14.7-12.2c36.1,6.8,63.6-8.2,75-26
						c4.7-7.4,6.3-14.8,4.1-19.6c-2.9-6.6-13-10.5-27-10.5"/>
				</g>
				<g>
					<path fill="none" stroke="#4A2A69" stroke-width="0.5" stroke-miterlimit="10" d="M183.7,195.1c-10.1,3.7-21.6,5.9-34.4,5.9
						c-6.9,0-14.2-0.7-21.9-2.1c-7-1.3-11.7-8.9-10.6-17c1.1-8.1,7.7-13.5,14.7-12.2c5.8,1.1,11.3,1.6,16.6,1.7"/>
				</g>
				<g>
					<linearGradient id="SVGID_4_" gradientUnits="userSpaceOnUse" x1="246.9595" y1="225.0226" x2="246.9595" y2="87.3556">
						<stop  offset="0" style="stop-color:#FFA84C"/>
						<stop  offset="0.2951" style="stop-color:#FFB84C"/>
						<stop  offset="0.6567" style="stop-color:#FFC54C"/>
						<stop  offset="1" style="stop-color:#FFC94C"/>
					</linearGradient>
					<path fill="url(#SVGID_4_)" d="M239.7,113.6c-13.5,0-23.2,3.7-25.9,10c-2.1,4.7-0.5,12.1,4.1,19.5c5.8,9.2,15.8,17.6,29,22.8
						c8.3,3.3,17.8,5.2,28.4,5.3c5.3,0,10.8-0.4,16.6-1.5c7-1.3,13.6,4.3,14.7,12.3c1.1,8.1-3.7,15.6-10.7,16.9
						c-7.2,1.3-14.1,1.9-20.6,1.9c-38.5,0-65.6-20.5-78.1-40.4c-10.5-16.6-12.8-35.4-6.2-50.2c4.3-9.8,16.4-26.1,48.8-26.1"/>
				</g>
			</g>
			<g>
				<g>
					<path fill="none" stroke="#4A2A69" stroke-width="0.5" stroke-miterlimit="10" d="M189.4,114.3c0.4-1.4,1-2.8,1.6-4.1
						c2.7-6.2,8.6-15,20.8-20.7"/>
					<path fill="none" stroke="#4A2A69" stroke-width="0.5" stroke-miterlimit="10" d="M212.7,178.3c-6.5-5.6-11.7-11.8-15.6-17.9
						c-0.8-1.3-1.5-2.5-2.2-3.8"/>
					<path fill="none" stroke="#4A2A69" stroke-width="0.5" stroke-miterlimit="10" d="M275.3,171.2c5.3,0,10.8-0.4,16.6-1.5
						c7-1.3,13.6,4.3,14.7,12.3c1.1,8.1-3.7,15.6-10.7,16.9c-7.2,1.3-14.1,1.9-20.6,1.9c-12.7,0-24.2-2.2-34.3-5.9"/>
					<path fill="none" stroke="#4A2A69" stroke-width="0.5" stroke-miterlimit="10" d="M234.9,113.8c-10.9,0.8-18.6,4.4-21.1,9.8
						c-2.1,4.7-0.5,12.1,4.1,19.5c3,4.7,7.1,9.3,12.2,13.3"/>
				</g>
			</g>
		</g>
	</g>
	<path fill="none" stroke="#4A2A69" stroke-width="0.5" stroke-miterlimit="10" d="M392.2,102.9c7.5,21.3-62.4,65.3-156.1,98.3
		S60.3,243.6,52.8,222.3"/>
	<path fill="none" stroke="#4A2A69" stroke-width="0.5" stroke-miterlimit="10" d="M373,255.1c-5.5,6.4-14.3,6.4-19.8,0l0,0
		c-5.5-6.4-14.3-6.4-19.8,0l0,0c-5.5,6.4-14.3,6.4-19.8,0l0,0c-5.5-6.4-14.3-6.4-19.8,0l0,0c-5.5,6.4-14.3,6.4-19.8,0l0,0
		c-5.5-6.4-14.3-6.4-19.8,0l0,0c-5.5,6.4-14.3,6.4-19.8,0l0,0c-5.5-6.4-14.3-6.4-19.8,0l0,0c-5.5,6.4-14.3,6.4-19.8,0"/>
	<linearGradient id="SVGID_5_" gradientUnits="userSpaceOnUse" x1="119.5708" y1="230.5452" x2="132.8283" y2="230.5452">
		<stop  offset="0" style="stop-color:#3487F8"/>
		<stop  offset="0.575" style="stop-color:#6474EE"/>
		<stop  offset="1" style="stop-color:#8367E7"/>
	</linearGradient>
	<circle fill="url(#SVGID_5_)" cx="126.2" cy="230.5" r="6.6"/>
	<linearGradient id="SVGID_6_" gradientUnits="userSpaceOnUse" x1="100.5161" y1="233.2669" x2="105.9596" y2="233.2669">
		<stop  offset="0" style="stop-color:#51F895"/>
		<stop  offset="1" style="stop-color:#00BF97"/>
	</linearGradient>
	<circle fill="url(#SVGID_6_)" cx="103.2" cy="233.3" r="2.7"/>
	<g>
		<linearGradient id="SVGID_7_" gradientUnits="userSpaceOnUse" x1="160.373" y1="46.5608" x2="178.1067" y2="46.5608">
			<stop  offset="0" style="stop-color:#00BF97"/>
			<stop  offset="1" style="stop-color:#51F895"/>
		</linearGradient>
		<polygon fill="url(#SVGID_7_)" points="160.4,36.3 178.1,46.4 160.4,56.8 		"/>
		<line fill="none" stroke="#4A2A69" stroke-width="0.5" stroke-miterlimit="10" x1="160.4" y1="132.8" x2="160.4" y2="36.3"/>
	</g>
	<g>
		<g>
			<linearGradient id="SVGID_8_" gradientUnits="userSpaceOnUse" x1="57.0874" y1="192.3896" x2="100.9527" y2="192.3896">
				<stop  offset="0" style="stop-color:#C251CA"/>
				<stop  offset="1" style="stop-color:#FF4860"/>
			</linearGradient>
			<path fill="url(#SVGID_8_)" d="M62.2,184l-5.1,5.1l25.3,25.3l5.1-5.1c2.3,2.3,6.1,2.3,8.4,0c2.3-2.3,2.3-6.1,0-8.4l5.1-5.1
				l-25.3-25.3l-5.1,5.1c-2.3-2.3-6.1-2.3-8.4,0C59.8,177.9,59.8,181.6,62.2,184z"/>
			<g>
				<line fill="none" stroke="#FFFFFF" stroke-width="2" stroke-miterlimit="10" x1="79" y1="184.3" x2="79" y2="200.5"/>
				<circle fill="none" stroke="#FFFFFF" stroke-width="2" stroke-miterlimit="10" cx="87.1" cy="197.6" r="2.9"/>
				<circle fill="none" stroke="#FFFFFF" stroke-width="2" stroke-miterlimit="10" cx="71" cy="187.2" r="2.9"/>
			</g>
		</g>
	</g>
	<g>
		<g>
			<g>
				<g>
					<defs>
						<path id="SVGID_9_" d="M329.2,73.8c-18.6-18.6-48.9-18.6-67.5,0s-18.6,48.9,0,67.5c18.6,18.6,48.9,18.6,67.5,0
							C347.8,122.7,347.8,92.4,329.2,73.8z M270.8,132.2c-13.6-13.6-13.6-35.7,0-49.3c13.6-13.6,35.7-13.6,49.3,0
							c13.6,13.6,13.6,35.7,0,49.3C306.4,145.8,284.4,145.8,270.8,132.2z"/>
					</defs>
					<clipPath id="SVGID_10_">
						<use xlink:href="#SVGID_9_"  overflow="visible"/>
					</clipPath>
					
						<linearGradient id="SVGID_11_" gradientUnits="userSpaceOnUse" x1="-2494.5122" y1="-4497.5313" x2="-2399.0378" y2="-4497.5352" gradientTransform="matrix(0.7071 0.7071 -0.7071 0.7071 -1154.6996 5017.9209)">
						<stop  offset="0" style="stop-color:#3487F8"/>
						<stop  offset="1" style="stop-color:#8FBEFF"/>
					</linearGradient>
					<circle clip-path="url(#SVGID_10_)" fill="url(#SVGID_11_)" cx="295.4" cy="107.6" r="47.7"/>
					
						<linearGradient id="SVGID_12_" gradientUnits="userSpaceOnUse" x1="-2514.8254" y1="-4521.4004" x2="-2406.0139" y2="-4521.4048" gradientTransform="matrix(0.7071 0.7071 -0.7071 0.7071 -1154.6996 5017.9209)">
						<stop  offset="0" style="stop-color:#C251CA"/>
						<stop  offset="1" style="stop-color:#FF4860"/>
					</linearGradient>
					<polygon clip-path="url(#SVGID_10_)" fill="url(#SVGID_12_)" points="281,25.7 295.4,107.6 358,102.6 					"/>
					
						<linearGradient id="SVGID_13_" gradientUnits="userSpaceOnUse" x1="-2446.7759" y1="-4521.4009" x2="-2393.5298" y2="-4521.4033" gradientTransform="matrix(0.7071 0.7071 -0.7071 0.7071 -1154.6996 5017.9209)">
						<stop  offset="0" style="stop-color:#FFA84C"/>
						<stop  offset="0.2951" style="stop-color:#FFB84C"/>
						<stop  offset="0.6567" style="stop-color:#FFC54C"/>
						<stop  offset="1" style="stop-color:#FFC94C"/>
					</linearGradient>
					<polygon clip-path="url(#SVGID_10_)" fill="url(#SVGID_13_)" points="295.4,107.6 347.8,130.4 358,102.6 					"/>
				</g>
			</g>
		</g>
	</g>
	<linearGradient id="SVGID_14_" gradientUnits="userSpaceOnUse" x1="261.433" y1="225.0226" x2="261.433" y2="87.3556">
		<stop  offset="0" style="stop-color:#FFA84C"/>
		<stop  offset="0.2951" style="stop-color:#FFB84C"/>
		<stop  offset="0.6567" style="stop-color:#FFC54C"/>
		<stop  offset="1" style="stop-color:#FFC94C"/>
	</linearGradient>
	<path fill="url(#SVGID_14_)" d="M238.8,84v29.6c13.6,0,23.7,4.2,30.7,10.4c5-8.3,10.5-17.5,14.6-24.3C272,89.5,256.5,84,238.8,84z"
		/>
	<linearGradient id="SVGID_15_" gradientUnits="userSpaceOnUse" x1="257.5342" y1="215.231" x2="341.683" y2="215.231">
		<stop  offset="0" style="stop-color:#FF55DE"/>
		<stop  offset="1" style="stop-color:#8FBEFF"/>
	</linearGradient>
	<rect x="257.5" y="212.9" fill="url(#SVGID_15_)" width="84.1" height="4.8"/>
	<rect x="79" y="104" fill="none" stroke="#4A2A69" stroke-width="0.5" stroke-miterlimit="10" width="37.7" height="12.8"/>
</g>
</svg>
