<?xml version="1.0" encoding="utf-8"?>
<!-- Generator: Adobe Illustrator 18.0.0, SVG Export Plug-In . SVG Version: 6.00 Build 0)  -->
<!DOCTYPE svg PUBLIC "-//W3C//DTD SVG 1.1//EN" "http://www.w3.org/Graphics/SVG/1.1/DTD/svg11.dtd">
<svg version="1.1" id="Слой_1" xmlns="http://www.w3.org/2000/svg" xmlns:xlink="http://www.w3.org/1999/xlink" x="0px" y="0px"
	 viewBox="0 0 445 300" enable-background="new 0 0 445 300" xml:space="preserve">
<g>
	<rect x="0" y="0" fill="none" width="445" height="300"/>
	<g>
		<path fill="none" stroke="#4A2A69" stroke-width="0.5" stroke-miterlimit="10" d="M50.9,224.1c-5.9-18.1,62.6-56.7,152.9-86.1
			s168.4-38.5,174.3-20.4"/>
		<g>
			<g>
				<g>
					<g>
						<g>
							<path fill="none" stroke="#4A2A69" stroke-width="0.5" stroke-miterlimit="10" d="M217,211h124.2c5.1,0,9.3-4.2,9.3-9.3V65
								c0-5.1-4.2-9.3-9.3-9.3H217c-5.1,0-9.3,4.2-9.3,9.3v136.7C207.7,206.9,211.8,211,217,211z"/>
						</g>
					</g>
				</g>
				<g>
					<g>
						<g>
							
								<linearGradient id="SVGID_1_" gradientUnits="userSpaceOnUse" x1="219.7496" y1="35.3778" x2="400.5168" y2="282.0602" gradientTransform="matrix(1 0 0 1 -15 0)">
								<stop  offset="0" style="stop-color:#51F895"/>
								<stop  offset="1" style="stop-color:#00BF97"/>
							</linearGradient>
							<path fill="url(#SVGID_1_)" d="M331.9,201.8H207.7c-5.1,0-9.3-4.2-9.3-9.3V55.8c0-5.1,4.2-9.3,9.3-9.3h124.2
								c5.1,0,9.3,4.2,9.3,9.3v136.7C341.2,197.6,337,201.8,331.9,201.8z"/>
						</g>
					</g>
				</g>
				<line fill="none" stroke="#4A2A69" stroke-width="0.5" stroke-miterlimit="10" x1="345.8" y1="61.9" x2="203.4" y2="61.9"/>
				<circle fill="none" stroke="#4A2A69" stroke-width="0.5" stroke-miterlimit="10" cx="210.9" cy="53.9" r="2.3"/>
				<circle fill="none" stroke="#4A2A69" stroke-width="0.5" stroke-miterlimit="10" cx="219" cy="53.9" r="2.3"/>
				<circle fill="none" stroke="#4A2A69" stroke-width="0.5" stroke-miterlimit="10" cx="227.1" cy="53.9" r="2.3"/>
			</g>
		</g>
		<g>
			<g>
				<g>
					<g>
						<linearGradient id="SVGID_2_" gradientUnits="userSpaceOnUse" x1="288.735" y1="232.9565" x2="144.4034" y2="88.6249">
							<stop  offset="0" style="stop-color:#C251CA"/>
							<stop  offset="1" style="stop-color:#FF4860"/>
						</linearGradient>
						<polygon fill="url(#SVGID_2_)" points="279.5,96.5 172.7,96.5 183.7,255.2 268.4,255.2 						"/>
						<path fill="#FFFFFF" d="M205.4,133.5v38.7h38.7v-38.7H205.4z M234.5,159.6l-3.3,2.1l0,0l-6-6l2.3-2.3l3.6,3.6l0-8.4l-4,4l0,0
							l-2.7,2.7l-0.5,0.5l-0.9,0.9v0l-4.9,4.9v0l-3.3-2.1v-13.7l3.3-1.8l0,0l6,6l-2.3,2.3l-3.6-3.6l0,8.4l2.6-2.6l0,0l5.5-5.5l0,0
							l4.9-4.9v0l3.3,1.8L234.5,159.6z"/>
						<polygon opacity="0.1" fill="#9D0000" points="279.5,96.5 172.7,96.5 173.2,104.3 278.9,104.3 						"/>
						<path fill="#FFFFFF" d="M285.6,96.5H166.2v-11c0-2.6,2.1-4.7,4.7-4.7h109.9c2.6,0,5,2.1,5,4.7L285.6,96.5z"/>
						<path fill="#FFFFFF" d="M276.4,71.6H175.7c-1.6,0-3,1.3-3,3v6.2h106.6v-6.2C279.3,72.9,278,71.6,276.4,71.6z"/>
					</g>
				</g>
			</g>
		</g>
		<line fill="none" stroke="#4F2D70" stroke-width="10" stroke-miterlimit="10" x1="57.8" y1="260.1" x2="394.4" y2="260.1"/>
		<path fill="none" stroke="#4A2A69" stroke-width="0.5" stroke-miterlimit="10" d="M378.2,117.7c5.9,18.1-62.6,56.7-152.9,86.1
			S56.8,242.3,50.9,224.1"/>
		<g>
			<polygon fill="none" stroke="#4A2A69" stroke-width="0.5" stroke-miterlimit="10" points="136,178.6 123,194.2 149.1,194.2 			
				"/>
			<polygon fill="none" stroke="#4A2A69" stroke-width="0.5" stroke-miterlimit="10" points="136,155.1 123,170.7 149.1,170.7 			
				"/>
			
				<linearGradient id="SVGID_3_" gradientUnits="userSpaceOnUse" x1="-2182.6475" y1="6723.2212" x2="-2168.303" y2="6708.8765" gradientTransform="matrix(-1 0 0 -1 -2039.4532 6862.0127)">
				<stop  offset="0" style="stop-color:#00BF97"/>
				<stop  offset="1" style="stop-color:#51F895"/>
			</linearGradient>
			<polygon fill="url(#SVGID_3_)" points="136,131.6 123,147.3 149.1,147.3 			"/>
		</g>
		<linearGradient id="SVGID_4_" gradientUnits="userSpaceOnUse" x1="216.4726" y1="273.6779" x2="343.1051" y2="273.6779">
			<stop  offset="0" style="stop-color:#BFAC00"/>
			<stop  offset="1" style="stop-color:#D4FF2A"/>
		</linearGradient>
		<rect x="216.5" y="272.1" fill="url(#SVGID_4_)" width="126.6" height="3.2"/>
		<circle fill="#FFFFFF" cx="305.6" cy="172.1" r="10"/>
		<linearGradient id="SVGID_5_" gradientUnits="userSpaceOnUse" x1="331.4842" y1="83.3034" x2="373.9617" y2="83.3034">
			<stop  offset="0" style="stop-color:#3487F8"/>
			<stop  offset="1" style="stop-color:#8FBEFF"/>
		</linearGradient>
		<rect x="331.5" y="80.7" fill="url(#SVGID_5_)" width="42.5" height="5.2"/>
		<path fill="none" stroke="#4A2A69" stroke-width="0.5" stroke-miterlimit="10" d="M198.4,71.6h-22.7c-1.6,0-3,1.3-3,3v6.2"/>
		<path fill="none" stroke="#4A2A69" stroke-width="0.5" stroke-miterlimit="10" d="M166.2,96.5v-11c0-2.6,2.1-4.7,4.7-4.7h109.9"/>
		<rect x="326.1" y="186.7" fill="none" stroke="#4A2A69" stroke-width="0.5" stroke-miterlimit="10" width="38.6" height="38.6"/>
		
			<linearGradient id="SVGID_6_" gradientUnits="userSpaceOnUse" x1="2858.3037" y1="1231.9196" x2="2867.3013" y2="1231.9196" gradientTransform="matrix(0.4062 0.9138 -0.9138 0.4062 325.7474 -2975.8218)">
			<stop  offset="0" style="stop-color:#FFA84C"/>
			<stop  offset="1" style="stop-color:#FFC94C"/>
		</linearGradient>
		<circle fill="url(#SVGID_6_)" cx="362.8" cy="140.6" r="4.5"/>
		<circle fill="#4A2A69" cx="163.1" cy="152.2" r="3.2"/>
	</g>
</g>
</svg>
